<svg xmlns="http://www.w3.org/2000/svg" viewBox="0 0 64 64">
  <rect width="64" height="64" rx="16" fill="#0b0b0b"/>
  <g transform="translate(6 6) scale(0.17)">
    <path
      d="M468 426 L506.084337 426 C506.084337 426, 516.084337 426, 516.084337 416 L516.084337 258.5 C516.084337 258.5, 516.084337 248.5, 526.084337 248.5 L616.433735 248.5 C616.433735 248.5, 626.433735 248.5, 626.433735 258.5 L626.433735 343.716867 C626.433735 343.716867, 626.433735 353.716867, 636.433735 353.716867 L731.915662 353.716867 C731.915662 353.716867, 741.915662 353.716867, 741.915662 363.716867 L741.915662 451.5 C741.915662 451.5, 741.915662 461.5, 731.915662 461.5 L578 461.5 C578 461.5, 568 461.5, 568 471.5 L568 526 C568 526, 568 536, 558 536 L468 536 C468 536, 458 536, 458 526 L458 436 C458 436, 458 426, 468 426"
      fill="#d4af7a"
    />
  </g>
</svg>
